<svg xmlns="http://www.w3.org/2000/svg" version="1.1" width="1024" height="1024" viewBox="0 0 1024 1024">
  <g transform="translate(0, 0)">
    <svg xmlns="http://www.w3.org/2000/svg" version="1.1" width="256" height="256" viewBox="0 0 256 256">
      <g>
        <svg xmlns="http://www.w3.org/2000/svg" version="1.1" width="256" height="256" viewBox="-128 -128 256 256">
          <polygon points="-128,-128 0,0 -128,128" fill="#ac3c6b" stroke="black" transform="rotate(90, 0, 0)"/>
          <path d="m-128,-32 l 32,-32 v 48 l 32,16 l -32,16 v 48 l -32,-32" fill="#eced29" stroke="#944b53" transform="rotate(90, 0, 0)"/>
        </svg>
      </g>
      <g>
        <svg xmlns="http://www.w3.org/2000/svg" version="1.1" width="256" height="256" viewBox="-128 -128 256 256">
          <polygon points="-128,-128 0,0 -128,128" fill="#ec35a0" stroke="black" transform="rotate(180, 0, 0)"/>
          <path d="m-128,-80 h 16 a64,64 30 0,0 64,64 v 32 a64,64 30 0,0 -64,64 h -16 v -48 a32,32 30 1,0 0,-64" fill="#81d1f0" stroke="#af4f8d" transform="rotate(180, 0, 0)"/>
        </svg>
      </g>
      <g>
        <svg xmlns="http://www.w3.org/2000/svg" version="1.1" width="256" height="256" viewBox="-128 -128 256 256">
          <polygon points="-128,-128 0,0 -128,128" fill="#ee3ea8" stroke="black" transform="rotate(270, 0, 0)"/>
          <path d="m-8,0 m-128,0 v -8 v -32 a16,16 30 1,1 16,0 v 32 h 32 a16,16 30 1,1 0,16 h -32 v 32 a16,16 30 1,1 -16,0 v -32" fill="#f0ed24" stroke="#d7ad60" transform="rotate(270, 0, 0)"/>
        </svg>
      </g>
      <g>
        <svg xmlns="http://www.w3.org/2000/svg" version="1.1" width="256" height="256" viewBox="-128 -128 256 256">
          <polygon points="-128,-128 0,0 -128,128" fill="#f88826" stroke="black"/>
          <path d="m-128,-32 l 32,-32 v 48 l 32,16 l -32,16 v 48 l -32,-32" fill="#864ca4" stroke="#b56844"/>
        </svg>
      </g>
      <rect x="0" y="0" width="256" height="256" fill="none" stroke="black"/>
    </svg>
  </g>
  <g transform="translate(256, 0)">
    <svg xmlns="http://www.w3.org/2000/svg" version="1.1" width="256" height="256" viewBox="0 0 256 256">
      <g>
        <svg xmlns="http://www.w3.org/2000/svg" version="1.1" width="256" height="256" viewBox="-128 -128 256 256">
          <polygon points="-128,-128 0,0 -128,128" fill="#ac3c6b" stroke="black" transform="rotate(90, 0, 0)"/>
          <path d="m-128,-32 v -32 a64,64 30 0,1 0,128 v -40 l 24, 24 l 24,-24 l -24,-24 l 24,-24 l -24,-24 l -24,24" fill="#2bb35a" stroke="#76615e" transform="rotate(90, 0, 0)"/>
        </svg>
      </g>
      <g>
        <svg xmlns="http://www.w3.org/2000/svg" version="1.1" width="256" height="256" viewBox="-128 -128 256 256">
          <polygon points="-128,-128 0,0 -128,128" fill="#831b43" stroke="black" transform="rotate(180, 0, 0)"/>
          <path d="m-128,0 m-8,-40 a16,16 30 1,1 16,0 l 32,32 a16,16 30 1,1 0,16 l -32,32 a16,16 30 1,1 -16,0 l 8,-16 l 24,-24 l -24,-24" fill="#f48614" stroke="#b76742" transform="rotate(180, 0, 0)"/>
        </svg>
      </g>
      <g>
        <svg xmlns="http://www.w3.org/2000/svg" version="1.1" width="256" height="256" viewBox="-128 -128 256 256">
          <polygon points="-128,-128 0,0 -128,128" fill="#eded25" stroke="black" transform="rotate(270, 0, 0)"/>
          <path d="m-128,-32 l 32,-32 v 48 l 32,16 l -32,16 v 48 l -32,-32" fill="#43aee6" stroke="#92ad65" transform="rotate(270, 0, 0)"/>
        </svg>
      </g>
      <g>
        <svg xmlns="http://www.w3.org/2000/svg" version="1.1" width="256" height="256" viewBox="-128 -128 256 256">
          <polygon points="-128,-128 0,0 -128,128" fill="#831b43" stroke="black"/>
          <path d="m-128,0 m-8,-40 a16,16 30 1,1 16,0 l 32,32 a16,16 30 1,1 0,16 l -32,32 a16,16 30 1,1 -16,0 l 8,-16 l 24,-24 l -24,-24" fill="#f48614" stroke="#b76742"/>
        </svg>
      </g>
      <rect x="0" y="0" width="256" height="256" fill="none" stroke="black"/>
    </svg>
  </g>
  <g transform="translate(512, 0)">
    <svg xmlns="http://www.w3.org/2000/svg" version="1.1" width="256" height="256" viewBox="0 0 256 256">
      <g>
        <svg xmlns="http://www.w3.org/2000/svg" version="1.1" width="256" height="256" viewBox="-128 -128 256 256">
          <polygon points="-128,-128 0,0 -128,128" fill="#26638e" stroke="black" transform="rotate(90, 0, 0)"/>
          <path d="m-8,0 m-128,0 v -8 v -32 a16,16 30 1,1 16,0 v 32 h 32 a16,16 30 1,1 0,16 h -32 v 32 a16,16 30 1,1 -16,0 v -32" fill="#f38622" stroke="#c1732d" transform="rotate(90, 0, 0)"/>
        </svg>
      </g>
      <g>
        <svg xmlns="http://www.w3.org/2000/svg" version="1.1" width="256" height="256" viewBox="-128 -128 256 256">
          <polygon points="-128,-128 0,0 -128,128" fill="#ed3da5" stroke="black" transform="rotate(180, 0, 0)"/>
          <path d="m-128,-96 l 32,32 l -8,8 l 32,32 l 8,-8 l 32,32 l -32,32 l -8,-8 l -32,32 l 8,8 l -32,32" fill="#fdf102" stroke="#edc524" transform="rotate(180, 0, 0)"/>
        </svg>
      </g>
      <g>
        <svg xmlns="http://www.w3.org/2000/svg" version="1.1" width="256" height="256" viewBox="-128 -128 256 256">
          <polygon points="-128,-128 0,0 -128,128" fill="#eded25" stroke="black" transform="rotate(270, 0, 0)"/>
          <path d="m-128,-96 l 96,96 l -96, 96 v -32 l 64,-64 l -64,-64" fill="#2bb356" stroke="#cbcd2a" transform="rotate(270, 0, 0)"/>
        </svg>
      </g>
      <g>
        <svg xmlns="http://www.w3.org/2000/svg" version="1.1" width="256" height="256" viewBox="-128 -128 256 256">
          <polygon points="-128,-128 0,0 -128,128" fill="#eded25" stroke="black"/>
          <path d="m-128,-96 l 96,96 l -96, 96 v -32 l 64,-64 l -64,-64" fill="#2bb356" stroke="#cbcd2a"/>
        </svg>
      </g>
      <rect x="0" y="0" width="256" height="256" fill="none" stroke="black"/>
    </svg>
  </g>
  <g transform="translate(768, 0)">
    <svg xmlns="http://www.w3.org/2000/svg" version="1.1" width="256" height="256" viewBox="0 0 256 256">
      <g>
        <svg xmlns="http://www.w3.org/2000/svg" version="1.1" width="256" height="256" viewBox="-128 -128 256 256">
          <polygon points="-128,-128 0,0 -128,128" fill="#854aa3" stroke="black" transform="rotate(90, 0, 0)"/>
          <path d="m-128,-32 v -32 a64,64 30 0,1 0,128 v -40 l 24, 24 l 24,-24 l -24,-24 l 24,-24 l -24,-24 l -24,24" fill="#eced25" stroke="#c9bb4b" transform="rotate(90, 0, 0)"/>
        </svg>
      </g>
      <g>
        <svg xmlns="http://www.w3.org/2000/svg" version="1.1" width="256" height="256" viewBox="-128 -128 256 256">
          <polygon points="-128,-128 0,0 -128,128" fill="#33b441" stroke="black" transform="rotate(180, 0, 0)"/>
          <path d="m-128,-64 h 32 l 32,32 v  64 l -32,32 h -32 v -16 a48,48 30 1,0 0,-96" fill="#265e93" stroke="#3b6c8c" transform="rotate(180, 0, 0)"/>
        </svg>
      </g>
      <g>
        <svg xmlns="http://www.w3.org/2000/svg" version="1.1" width="256" height="256" viewBox="-128 -128 256 256">
          <polygon points="-128,-128 0,0 -128,128" fill="#32b459" stroke="black" transform="rotate(270, 0, 0)"/>
          <path d="m-128,0 m-8,0 v -8 v -32 a16,16 30 1,1 16,0 v 32 h 32 a16,16 30 1,1 0,16 h -32 v 32 a16,16 30 1,1 -16,0 v -32" fill="#ee3ea8" stroke="#698367" transform="rotate(270, 0, 0)"/>
        </svg>
      </g>
      <g>
        <svg xmlns="http://www.w3.org/2000/svg" version="1.1" width="256" height="256" viewBox="-128 -128 256 256">
          <polygon points="-128,-128 0,0 -128,128" fill="#eded25" stroke="black"/>
          <path d="m-128,-32 l 32,-32 v 48 l 32,16 l -32,16 v 48 l -32,-32" fill="#43aee6" stroke="#92ad65"/>
        </svg>
      </g>
      <rect x="0" y="0" width="256" height="256" fill="none" stroke="black"/>
    </svg>
  </g>
  <g transform="translate(0, 256)">
    <svg xmlns="http://www.w3.org/2000/svg" version="1.1" width="256" height="256" viewBox="0 0 256 256">
      <g>
        <svg xmlns="http://www.w3.org/2000/svg" version="1.1" width="256" height="256" viewBox="-128 -128 256 256">
          <polygon points="-128,-128 0,0 -128,128" fill="#26638e" stroke="black" transform="rotate(90, 0, 0)"/>
          <path d="m-8,0 m-128,0 v -8 v -32 a16,16 30 1,1 16,0 v 32 h 32 a16,16 30 1,1 0,16 h -32 v 32 a16,16 30 1,1 -16,0 v -32" fill="#f38622" stroke="#c1732d" transform="rotate(90, 0, 0)"/>
        </svg>
      </g>
      <g>
        <svg xmlns="http://www.w3.org/2000/svg" version="1.1" width="256" height="256" viewBox="-128 -128 256 256">
          <polygon points="-128,-128 0,0 -128,128" fill="#ed3da5" stroke="black" transform="rotate(180, 0, 0)"/>
          <path d="m-128,-96 l 32,32 l -8,8 l 32,32 l 8,-8 l 32,32 l -32,32 l -8,-8 l -32,32 l 8,8 l -32,32" fill="#fdf102" stroke="#edc524" transform="rotate(180, 0, 0)"/>
        </svg>
      </g>
      <g>
        <svg xmlns="http://www.w3.org/2000/svg" version="1.1" width="256" height="256" viewBox="-128 -128 256 256">
          <polygon points="-128,-128 0,0 -128,128" fill="#eded25" stroke="black" transform="rotate(270, 0, 0)"/>
          <path d="m-128,-32 l 32,-32 v 48 l 32,16 l -32,16 v 48 l -32,-32" fill="#43aee6" stroke="#92ad65" transform="rotate(270, 0, 0)"/>
        </svg>
      </g>
      <g>
        <svg xmlns="http://www.w3.org/2000/svg" version="1.1" width="256" height="256" viewBox="-128 -128 256 256">
          <polygon points="-128,-128 0,0 -128,128" fill="#5cc9f2" stroke="black"/>
          <path d="m-128,-96 l 32,32 l -8,8 l 32,32 l 8,-8 l 32,32 l -32,32 l -8,-8 l -32,32 l 8,8 l -32,32" fill="#ee3fa8" stroke="#8682bc"/>
        </svg>
      </g>
      <rect x="0" y="0" width="256" height="256" fill="none" stroke="black"/>
    </svg>
  </g>
  <g transform="translate(256, 256)">
    <svg xmlns="http://www.w3.org/2000/svg" version="1.1" width="256" height="256" viewBox="0 0 256 256">
      <g>
        <svg xmlns="http://www.w3.org/2000/svg" version="1.1" width="256" height="256" viewBox="-128 -128 256 256">
          <polygon points="-128,-128 0,0 -128,128" fill="#265e92" stroke="black" transform="rotate(90, 0, 0)"/>
          <path d="m-128,-96 l 96,96 l -96, 96 v -32 l 64,-64 l -64,-64" fill="#75cff2" stroke="#4585ad" transform="rotate(90, 0, 0)"/>
        </svg>
      </g>
      <g>
        <svg xmlns="http://www.w3.org/2000/svg" version="1.1" width="256" height="256" viewBox="-128 -128 256 256">
          <polygon points="-128,-128 0,0 -128,128" fill="#ac3c6b" stroke="black" transform="rotate(180, 0, 0)"/>
          <path d="m-128,-32 l 32,-32 v 48 l 32,16 l -32,16 v 48 l -32,-32" fill="#eced29" stroke="#944b53" transform="rotate(180, 0, 0)"/>
        </svg>
      </g>
      <g>
        <svg xmlns="http://www.w3.org/2000/svg" version="1.1" width="256" height="256" viewBox="-128 -128 256 256">
          <polygon points="-128,-128 0,0 -128,128" fill="#ac3c6b" stroke="black" transform="rotate(270, 0, 0)"/>
          <path d="m-128,-32 v -32 a64,64 30 0,1 0,128 v -40 l 24, 24 l 24,-24 l -24,-24 l 24,-24 l -24,-24 l -24,24" fill="#2bb35a" stroke="#76615e" transform="rotate(270, 0, 0)"/>
        </svg>
      </g>
      <g>
        <svg xmlns="http://www.w3.org/2000/svg" version="1.1" width="256" height="256" viewBox="-128 -128 256 256">
          <polygon points="-128,-128 0,0 -128,128" fill="#fdf103" stroke="black"/>
          <path d="m-128,-96 l 32,32 l -8,8 l 32,32 l 8,-8 l 32,32 l -32,32 l -8,-8 l -32,32 l 8,8 l -32,32" fill="#145c8c" stroke="#8e9743"/>
        </svg>
      </g>
      <rect x="0" y="0" width="256" height="256" fill="none" stroke="black"/>
    </svg>
  </g>
  <g transform="translate(512, 256)">
    <svg xmlns="http://www.w3.org/2000/svg" version="1.1" width="256" height="256" viewBox="0 0 256 256">
      <g>
        <svg xmlns="http://www.w3.org/2000/svg" version="1.1" width="256" height="256" viewBox="-128 -128 256 256">
          <polygon points="-128,-128 0,0 -128,128" fill="#854aa3" stroke="black" transform="rotate(90, 0, 0)"/>
          <path d="m-128,-32 v -32 a64,64 30 0,1 0,128 v -40 l 24, 24 l 24,-24 l -24,-24 l 24,-24 l -24,-24 l -24,24" fill="#eced25" stroke="#c9bb4b" transform="rotate(90, 0, 0)"/>
        </svg>
      </g>
      <g>
        <svg xmlns="http://www.w3.org/2000/svg" version="1.1" width="256" height="256" viewBox="-128 -128 256 256">
          <polygon points="-128,-128 0,0 -128,128" fill="#145c8c" stroke="black" transform="rotate(180, 0, 0)"/>
          <path d="m-128,-32 v -32 a64,64 30 0,1 0,128 v -40 l 24, 24 l 24,-24 l -24,-24 l 24,-24 l -24,-24 l -24,24" fill="#ec359e" stroke="#a95397" transform="rotate(180, 0, 0)"/>
        </svg>
      </g>
      <g>
        <svg xmlns="http://www.w3.org/2000/svg" version="1.1" width="256" height="256" viewBox="-128 -128 256 256">
          <polygon points="-128,-128 0,0 -128,128" fill="#33b441" stroke="black" transform="rotate(270, 0, 0)"/>
          <path d="m-128,-64 h 32 l 32,32 v  64 l -32,32 h -32 v -16 a48,48 30 1,0 0,-96" fill="#265e93" stroke="#3b6c8c" transform="rotate(270, 0, 0)"/>
        </svg>
      </g>
      <g>
        <svg xmlns="http://www.w3.org/2000/svg" version="1.1" width="256" height="256" viewBox="-128 -128 256 256">
          <polygon points="-128,-128 0,0 -128,128" fill="#155c8c" stroke="black"/>
          <path d="m-128,-64 a32,32 30 0,1 32,32 a32,32 30 0,1 0,64 a32,32 30 0,1 -32,32 v -32 a32,32 30 0,0 0,-64" fill="#fef102" stroke="#7c8c48"/>
        </svg>
      </g>
      <rect x="0" y="0" width="256" height="256" fill="none" stroke="black"/>
    </svg>
  </g>
  <g transform="translate(768, 256)">
    <svg xmlns="http://www.w3.org/2000/svg" version="1.1" width="256" height="256" viewBox="0 0 256 256">
      <g>
        <svg xmlns="http://www.w3.org/2000/svg" version="1.1" width="256" height="256" viewBox="-128 -128 256 256">
          <polygon points="-128,-128 0,0 -128,128" fill="#ac3c6b" stroke="black" transform="rotate(90, 0, 0)"/>
          <path d="m-128,-32 v -32 a64,64 30 0,1 0,128 v -40 l 24, 24 l 24,-24 l -24,-24 l 24,-24 l -24,-24 l -24,24" fill="#2bb35a" stroke="#76615e" transform="rotate(90, 0, 0)"/>
        </svg>
      </g>
      <g>
        <svg xmlns="http://www.w3.org/2000/svg" version="1.1" width="256" height="256" viewBox="-128 -128 256 256">
          <polygon points="-128,-128 0,0 -128,128" fill="#fdf103" stroke="black" transform="rotate(180, 0, 0)"/>
          <path d="m-128,-96 l 32,32 l -8,8 l 32,32 l 8,-8 l 32,32 l -32,32 l -8,-8 l -32,32 l 8,8 l -32,32" fill="#145c8c" stroke="#8e9743" transform="rotate(180, 0, 0)"/>
        </svg>
      </g>
      <g>
        <svg xmlns="http://www.w3.org/2000/svg" version="1.1" width="256" height="256" viewBox="-128 -128 256 256">
          <polygon points="-128,-128 0,0 -128,128" fill="#854aa3" stroke="black" transform="rotate(270, 0, 0)"/>
          <path d="m-128,-32 v -32 a64,64 30 0,1 0,128 v -40 l 24, 24 l 24,-24 l -24,-24 l 24,-24 l -24,-24 l -24,24" fill="#eced25" stroke="#c9bb4b" transform="rotate(270, 0, 0)"/>
        </svg>
      </g>
      <g>
        <svg xmlns="http://www.w3.org/2000/svg" version="1.1" width="256" height="256" viewBox="-128 -128 256 256">
          <polygon points="-128,-128 0,0 -128,128" fill="#eded25" stroke="black"/>
          <path d="m-128,-96 l 96,96 l -96, 96 v -32 l 64,-64 l -64,-64" fill="#2bb356" stroke="#cbcd2a"/>
        </svg>
      </g>
      <rect x="0" y="0" width="256" height="256" fill="none" stroke="black"/>
    </svg>
  </g>
  <g transform="translate(0, 512)">
    <svg xmlns="http://www.w3.org/2000/svg" version="1.1" width="256" height="256" viewBox="0 0 256 256">
      <g>
        <svg xmlns="http://www.w3.org/2000/svg" version="1.1" width="256" height="256" viewBox="-128 -128 256 256">
          <polygon points="-128,-128 0,0 -128,128" fill="#5cc9f2" stroke="black" transform="rotate(90, 0, 0)"/>
          <path d="m-128,-96 l 32,32 l -8,40 l 40,-8 l 32,32 l -32,32 l -40,-8 l 8,40 l -32,32" fill="#ee3fa8" stroke="#8682bc" transform="rotate(90, 0, 0)"/>
        </svg>
      </g>
      <g>
        <svg xmlns="http://www.w3.org/2000/svg" version="1.1" width="256" height="256" viewBox="-128 -128 256 256">
          <polygon points="-128,-128 0,0 -128,128" fill="#26638e" stroke="black" transform="rotate(180, 0, 0)"/>
          <path d="m-8,0 m-128,0 v -8 v -32 a16,16 30 1,1 16,0 v 32 h 32 a16,16 30 1,1 0,16 h -32 v 32 a16,16 30 1,1 -16,0 v -32" fill="#f38622" stroke="#c1732d" transform="rotate(180, 0, 0)"/>
        </svg>
      </g>
      <g>
        <svg xmlns="http://www.w3.org/2000/svg" version="1.1" width="256" height="256" viewBox="-128 -128 256 256">
          <polygon points="-128,-128 0,0 -128,128" fill="#f88826" stroke="black" transform="rotate(270, 0, 0)"/>
          <path d="m-128,-32 l 32,-32 v 48 l 32,16 l -32,16 v 48 l -32,-32" fill="#864ca4" stroke="#b56844" transform="rotate(270, 0, 0)"/>
        </svg>
      </g>
      <g>
        <svg xmlns="http://www.w3.org/2000/svg" version="1.1" width="256" height="256" viewBox="-128 -128 256 256">
          <polygon points="-128,-128 0,0 -128,128" fill="#eded25" stroke="black"/>
          <path d="m-128,-32 l 32,-32 v 48 l 32,16 l -32,16 v 48 l -32,-32" fill="#43aee6" stroke="#92ad65"/>
        </svg>
      </g>
      <rect x="0" y="0" width="256" height="256" fill="none" stroke="black"/>
    </svg>
  </g>
  <g transform="translate(256, 512)">
    <svg xmlns="http://www.w3.org/2000/svg" version="1.1" width="256" height="256" viewBox="0 0 256 256">
      <g>
        <svg xmlns="http://www.w3.org/2000/svg" version="1.1" width="256" height="256" viewBox="-128 -128 256 256">
          <polygon points="-128,-128 0,0 -128,128" fill="#9a9a9a" stroke="#9a9a9a" transform="rotate(90, 0, 0)"/>
        </svg>
      </g>
      <g>
        <svg xmlns="http://www.w3.org/2000/svg" version="1.1" width="256" height="256" viewBox="-128 -128 256 256">
          <polygon points="-128,-128 0,0 -128,128" fill="#ac3c6b" stroke="black" transform="rotate(180, 0, 0)"/>
          <path d="m-128,-32 l 32,-32 v 48 l 32,16 l -32,16 v 48 l -32,-32" fill="#eced29" stroke="#944b53" transform="rotate(180, 0, 0)"/>
        </svg>
      </g>
      <g>
        <svg xmlns="http://www.w3.org/2000/svg" version="1.1" width="256" height="256" viewBox="-128 -128 256 256">
          <polygon points="-128,-128 0,0 -128,128" fill="#5cc9f2" stroke="black" transform="rotate(270, 0, 0)"/>
          <path d="m-128,-96 l 32,32 l -8,40 l 40,-8 l 32,32 l -32,32 l -40,-8 l 8,40 l -32,32" fill="#ee3fa8" stroke="#8682bc" transform="rotate(270, 0, 0)"/>
        </svg>
      </g>
      <g>
        <svg xmlns="http://www.w3.org/2000/svg" version="1.1" width="256" height="256" viewBox="-128 -128 256 256">
          <polygon points="-128,-128 0,0 -128,128" fill="#eded25" stroke="black"/>
          <path d="m-128,-32 l 32,-32 v 48 l 32,16 l -32,16 v 48 l -32,-32" fill="#43aee6" stroke="#92ad65"/>
        </svg>
      </g>
      <rect x="0" y="0" width="256" height="256" fill="none" stroke="black"/>
    </svg>
  </g>
  <g transform="translate(512, 512)">
    <svg xmlns="http://www.w3.org/2000/svg" version="1.1" width="256" height="256" viewBox="0 0 256 256">
      <g>
        <svg xmlns="http://www.w3.org/2000/svg" version="1.1" width="256" height="256" viewBox="-128 -128 256 256">
          <polygon points="-128,-128 0,0 -128,128" fill="#155c8c" stroke="black" transform="rotate(90, 0, 0)"/>
          <path d="m-128,-64 a32,32 30 0,1 32,32 a32,32 30 0,1 0,64 a32,32 30 0,1 -32,32 v -32 a32,32 30 0,0 0,-64" fill="#fef102" stroke="#7c8c48" transform="rotate(90, 0, 0)"/>
        </svg>
      </g>
      <g>
        <svg xmlns="http://www.w3.org/2000/svg" version="1.1" width="256" height="256" viewBox="-128 -128 256 256">
          <polygon points="-128,-128 0,0 -128,128" fill="#5cc9f2" stroke="black" transform="rotate(180, 0, 0)"/>
          <path d="m-128,-96 l 32,32 l -8,40 l 40,-8 l 32,32 l -32,32 l -40,-8 l 8,40 l -32,32" fill="#ee3fa8" stroke="#8682bc" transform="rotate(180, 0, 0)"/>
        </svg>
      </g>
      <g>
        <svg xmlns="http://www.w3.org/2000/svg" version="1.1" width="256" height="256" viewBox="-128 -128 256 256">
          <polygon points="-128,-128 0,0 -128,128" fill="#eded25" stroke="black" transform="rotate(270, 0, 0)"/>
          <path d="m-128,-32 l 32,-32 v 48 l 32,16 l -32,16 v 48 l -32,-32" fill="#43aee6" stroke="#92ad65" transform="rotate(270, 0, 0)"/>
        </svg>
      </g>
      <g>
        <svg xmlns="http://www.w3.org/2000/svg" version="1.1" width="256" height="256" viewBox="-128 -128 256 256">
          <polygon points="-128,-128 0,0 -128,128" fill="#eded25" stroke="black"/>
          <path d="m-128,-96 l 96,96 l -96, 96 v -32 l 64,-64 l -64,-64" fill="#2bb356" stroke="#cbcd2a"/>
        </svg>
      </g>
      <rect x="0" y="0" width="256" height="256" fill="none" stroke="black"/>
    </svg>
  </g>
  <g transform="translate(768, 512)">
    <svg xmlns="http://www.w3.org/2000/svg" version="1.1" width="256" height="256" viewBox="0 0 256 256">
      <g>
        <svg xmlns="http://www.w3.org/2000/svg" version="1.1" width="256" height="256" viewBox="-128 -128 256 256">
          <polygon points="-128,-128 0,0 -128,128" fill="#32b459" stroke="black" transform="rotate(90, 0, 0)"/>
          <path d="m-128,0 m-8,0 v -8 v -32 a16,16 30 1,1 16,0 v 32 h 32 a16,16 30 1,1 0,16 h -32 v 32 a16,16 30 1,1 -16,0 v -32" fill="#ee3ea8" stroke="#698367" transform="rotate(90, 0, 0)"/>
        </svg>
      </g>
      <g>
        <svg xmlns="http://www.w3.org/2000/svg" version="1.1" width="256" height="256" viewBox="-128 -128 256 256">
          <polygon points="-128,-128 0,0 -128,128" fill="#eded25" stroke="black" transform="rotate(180, 0, 0)"/>
          <path d="m-128,-96 l 96,96 l -96, 96 v -32 l 64,-64 l -64,-64" fill="#2bb356" stroke="#cbcd2a" transform="rotate(180, 0, 0)"/>
        </svg>
      </g>
      <g>
        <svg xmlns="http://www.w3.org/2000/svg" version="1.1" width="256" height="256" viewBox="-128 -128 256 256">
          <polygon points="-128,-128 0,0 -128,128" fill="#f88512" stroke="black" transform="rotate(270, 0, 0)"/>
          <path d="m-128,-80 h 16 a64,64 30 0,0 64,64 v 32 a64,64 30 0,0 -64,64 h -16" fill="#80d5f8" stroke="#9ea599" transform="rotate(270, 0, 0)"/>
        </svg>
      </g>
      <g>
        <svg xmlns="http://www.w3.org/2000/svg" version="1.1" width="256" height="256" viewBox="-128 -128 256 256">
          <polygon points="-128,-128 0,0 -128,128" fill="#eded25" stroke="black"/>
          <path d="m-128,-32 l 32,-32 v 48 l 32,16 l -32,16 v 48 l -32,-32" fill="#43aee6" stroke="#92ad65"/>
        </svg>
      </g>
      <rect x="0" y="0" width="256" height="256" fill="none" stroke="black"/>
    </svg>
  </g>
  <g transform="translate(0, 768)">
    <svg xmlns="http://www.w3.org/2000/svg" version="1.1" width="256" height="256" viewBox="0 0 256 256">
      <g>
        <svg xmlns="http://www.w3.org/2000/svg" version="1.1" width="256" height="256" viewBox="-128 -128 256 256">
          <polygon points="-128,-128 0,0 -128,128" fill="#fdf103" stroke="black" transform="rotate(90, 0, 0)"/>
          <path d="m-128,-96 l 32,32 l -8,8 l 32,32 l 8,-8 l 32,32 l -32,32 l -8,-8 l -32,32 l 8,8 l -32,32" fill="#145c8c" stroke="#8e9743" transform="rotate(90, 0, 0)"/>
        </svg>
      </g>
      <g>
        <svg xmlns="http://www.w3.org/2000/svg" version="1.1" width="256" height="256" viewBox="-128 -128 256 256">
          <polygon points="-128,-128 0,0 -128,128" fill="#ed3da5" stroke="black" transform="rotate(180, 0, 0)"/>
          <path d="m-128,-96 l 32,32 l -8,8 l 32,32 l 8,-8 l 32,32 l -32,32 l -8,-8 l -32,32 l 8,8 l -32,32" fill="#fdf102" stroke="#edc524" transform="rotate(180, 0, 0)"/>
        </svg>
      </g>
      <g>
        <svg xmlns="http://www.w3.org/2000/svg" version="1.1" width="256" height="256" viewBox="-128 -128 256 256">
          <polygon points="-128,-128 0,0 -128,128" fill="#854aa3" stroke="black" transform="rotate(270, 0, 0)"/>
          <path d="m-128,-32 v -32 a64,64 30 0,1 0,128 v -40 l 24, 24 l 24,-24 l -24,-24 l 24,-24 l -24,-24 l -24,24" fill="#eced25" stroke="#c9bb4b" transform="rotate(270, 0, 0)"/>
        </svg>
      </g>
      <g>
        <svg xmlns="http://www.w3.org/2000/svg" version="1.1" width="256" height="256" viewBox="-128 -128 256 256">
          <polygon points="-128,-128 0,0 -128,128" fill="#ac3c6b" stroke="black"/>
          <path d="m-128,-32 l 32,-32 v 48 l 32,16 l -32,16 v 48 l -32,-32" fill="#eced29" stroke="#944b53"/>
        </svg>
      </g>
      <rect x="0" y="0" width="256" height="256" fill="none" stroke="black"/>
    </svg>
  </g>
  <g transform="translate(256, 768)">
    <svg xmlns="http://www.w3.org/2000/svg" version="1.1" width="256" height="256" viewBox="0 0 256 256">
      <g>
        <svg xmlns="http://www.w3.org/2000/svg" version="1.1" width="256" height="256" viewBox="-128 -128 256 256">
          <polygon points="-128,-128 0,0 -128,128" fill="#f88512" stroke="black" transform="rotate(90, 0, 0)"/>
          <path d="m-128,-80 h 16 a64,64 30 0,0 64,64 v 32 a64,64 30 0,0 -64,64 h -16" fill="#80d5f8" stroke="#9ea599" transform="rotate(90, 0, 0)"/>
        </svg>
      </g>
      <g>
        <svg xmlns="http://www.w3.org/2000/svg" version="1.1" width="256" height="256" viewBox="-128 -128 256 256">
          <polygon points="-128,-128 0,0 -128,128" fill="#5cc9f2" stroke="black" transform="rotate(180, 0, 0)"/>
          <path d="m-128,-96 l 32,32 l -8,40 l 40,-8 l 32,32 l -32,32 l -40,-8 l 8,40 l -32,32" fill="#ee3fa8" stroke="#8682bc" transform="rotate(180, 0, 0)"/>
        </svg>
      </g>
      <g>
        <svg xmlns="http://www.w3.org/2000/svg" version="1.1" width="256" height="256" viewBox="-128 -128 256 256">
          <polygon points="-128,-128 0,0 -128,128" fill="#2bb35a" stroke="black" transform="rotate(270, 0, 0)"/>
          <path d="m-128,-96 l 32,32 l -8,40 l 40,-8 l 32,32 l -32,32 l -40,-8 l 8,40 l -32,32" fill="#f4892a" stroke="#778e3d" transform="rotate(270, 0, 0)"/>
        </svg>
      </g>
      <g>
        <svg xmlns="http://www.w3.org/2000/svg" version="1.1" width="256" height="256" viewBox="-128 -128 256 256">
          <polygon points="-128,-128 0,0 -128,128" fill="#f88826" stroke="black"/>
          <path d="m-128,-32 l 32,-32 v 48 l 32,16 l -32,16 v 48 l -32,-32" fill="#864ca4" stroke="#b56844"/>
        </svg>
      </g>
      <rect x="0" y="0" width="256" height="256" fill="none" stroke="black"/>
    </svg>
  </g>
  <g transform="translate(512, 768)">
    <svg xmlns="http://www.w3.org/2000/svg" version="1.1" width="256" height="256" viewBox="0 0 256 256">
      <g>
        <svg xmlns="http://www.w3.org/2000/svg" version="1.1" width="256" height="256" viewBox="-128 -128 256 256">
          <polygon points="-128,-128 0,0 -128,128" fill="#32b459" stroke="black" transform="rotate(90, 0, 0)"/>
          <path d="m-128,0 m-8,0 v -8 v -32 a16,16 30 1,1 16,0 v 32 h 32 a16,16 30 1,1 0,16 h -32 v 32 a16,16 30 1,1 -16,0 v -32" fill="#ee3ea8" stroke="#698367" transform="rotate(90, 0, 0)"/>
        </svg>
      </g>
      <g>
        <svg xmlns="http://www.w3.org/2000/svg" version="1.1" width="256" height="256" viewBox="-128 -128 256 256">
          <polygon points="-128,-128 0,0 -128,128" fill="#831b43" stroke="black" transform="rotate(180, 0, 0)"/>
          <path d="m-128,0 m-8,-40 a16,16 30 1,1 16,0 l 32,32 a16,16 30 1,1 0,16 l -32,32 a16,16 30 1,1 -16,0 l 8,-16 l 24,-24 l -24,-24" fill="#f48614" stroke="#b76742" transform="rotate(180, 0, 0)"/>
        </svg>
      </g>
      <g>
        <svg xmlns="http://www.w3.org/2000/svg" version="1.1" width="256" height="256" viewBox="-128 -128 256 256">
          <polygon points="-128,-128 0,0 -128,128" fill="#26638e" stroke="black" transform="rotate(270, 0, 0)"/>
          <path d="m-8,0 m-128,0 v -8 v -32 a16,16 30 1,1 16,0 v 32 h 32 a16,16 30 1,1 0,16 h -32 v 32 a16,16 30 1,1 -16,0 v -32" fill="#f38622" stroke="#c1732d" transform="rotate(270, 0, 0)"/>
        </svg>
      </g>
      <g>
        <svg xmlns="http://www.w3.org/2000/svg" version="1.1" width="256" height="256" viewBox="-128 -128 256 256">
          <polygon points="-128,-128 0,0 -128,128" fill="#2bb35a" stroke="black"/>
          <path d="m-128,-96 l 32,32 l -8,40 l 40,-8 l 32,32 l -32,32 l -40,-8 l 8,40 l -32,32" fill="#f4892a" stroke="#778e3d"/>
        </svg>
      </g>
      <rect x="0" y="0" width="256" height="256" fill="none" stroke="black"/>
    </svg>
  </g>
  <g transform="translate(768, 768)">
    <svg xmlns="http://www.w3.org/2000/svg" version="1.1" width="256" height="256" viewBox="0 0 256 256">
      <g>
        <svg xmlns="http://www.w3.org/2000/svg" version="1.1" width="256" height="256" viewBox="-128 -128 256 256">
          <polygon points="-128,-128 0,0 -128,128" fill="#ed3da5" stroke="black" transform="rotate(90, 0, 0)"/>
          <path d="m-128,-96 l 32,32 l -8,8 l 32,32 l 8,-8 l 32,32 l -32,32 l -8,-8 l -32,32 l 8,8 l -32,32" fill="#fdf102" stroke="#edc524" transform="rotate(90, 0, 0)"/>
        </svg>
      </g>
      <g>
        <svg xmlns="http://www.w3.org/2000/svg" version="1.1" width="256" height="256" viewBox="-128 -128 256 256">
          <polygon points="-128,-128 0,0 -128,128" fill="#f88826" stroke="black" transform="rotate(180, 0, 0)"/>
          <path d="m-128,-32 l 32,-32 v 48 l 32,16 l -32,16 v 48 l -32,-32" fill="#864ca4" stroke="#b56844" transform="rotate(180, 0, 0)"/>
        </svg>
      </g>
      <g>
        <svg xmlns="http://www.w3.org/2000/svg" version="1.1" width="256" height="256" viewBox="-128 -128 256 256">
          <polygon points="-128,-128 0,0 -128,128" fill="#265e92" stroke="black" transform="rotate(270, 0, 0)"/>
          <path d="m-128,-96 l 96,96 l -96, 96 v -32 l 64,-64 l -64,-64" fill="#75cff2" stroke="#4585ad" transform="rotate(270, 0, 0)"/>
        </svg>
      </g>
      <g>
        <svg xmlns="http://www.w3.org/2000/svg" version="1.1" width="256" height="256" viewBox="-128 -128 256 256">
          <polygon points="-128,-128 0,0 -128,128" fill="#155c8c" stroke="black"/>
          <path d="m-128,-64 a32,32 30 0,1 32,32 a32,32 30 0,1 0,64 a32,32 30 0,1 -32,32 v -32 a32,32 30 0,0 0,-64" fill="#fef102" stroke="#7c8c48"/>
        </svg>
      </g>
      <rect x="0" y="0" width="256" height="256" fill="none" stroke="black"/>
    </svg>
  </g>
  <rect x="0" y="0" width="1024" height="1024" fill="none" stroke="black" transform="translate(0, 1024)"/>
</svg>
